{"title":"Star Wars Episode I The Phantom Menace (1999) DVD RIP","uid":9986598,"size":1518639547,"categoryP":"video","categoryS":"movies","magnet":"?xt=urn:btih:5c480a579f5ef3c965169fd45503da996f9ff283&amp;dn=Star+Wars+Episode+I+The+Phantom+Menace+%281999%29+DVD+RIP&amp;tr=udp%3A%2F%2Ftracker.openbittorrent.com%3A80&amp;tr=udp%3A%2F%2Fopen.demonii.com%3A1337&amp;tr=udp%3A%2F%2Ftracker.coppersurfer.tk%3A6969&amp;tr=udp%3A%2F%2Fexodus.desync.com%3A6969","seeders":11,"leechers":0,"uploader":"jmanwf","files":-1,"time":1397798026,"description":"Storyline\n\nThe evil Trade Federation, led by Nute Gunray is planning to take over the peaceful world of Naboo. Jedi Knights Qui-Gon Jinn and Obi-Wan Kenobi are sent to confront the leaders. But not everything goes to plan. The two Jedi escape, and along with their new Gungan friend, Jar Jar Binks head to Naboo to warn Queen Amidala, but droids have already started to capture Naboo and the Queen is not safe there. Eventually, they land on Tatooine, where they become friends with a young boy known as Anakin Skywalker. Qui-Gon is curious about the boy, and sees a bright future for him. The group must now find a way of getting to Coruscant and to finally solve this trade dispute, but there is someone else hiding in the shadows. Are the Sith really extinct? Is the Queen really who she says she is? And what's so special about this young boy?\n\n\n\nINCLUDES ENGLISH HARD CODED SUBTITLES FOR NONE ENGLISH SPEAKING PARTS\n\n\nFormat : MPEG-4\nFormat profile : Base Media / Version 2\nCodec ID : mp42\nFile size : 1.41 GiB\nDuration : 2h 16mn\nOverall bit rate mode : Variable\nOverall bit rate : 1 487 Kbps\nEncoded date : UTC 2014-04-08 09:29:44\nTagged date : UTC 2014-04-08 12:10:55\nWriting application : HandBrake 0.9.9 2013052900\n\nVideo\nID : 1\nFormat : AVC\nFormat/Info : Advanced Video Codec\nFormat profile : &lt;a class=&quot;__cf_email__&quot; href=&quot;/cdn-cgi/l/email-protection&quot; data-cfemail=&quot;793418101739354d5749&quot;&gt;[email&amp;#160;protected]&lt;/a&gt;&lt;script cf-hash='f9e31' type=&quot;text/javascript&quot;&gt;\n/* &lt;![CDATA[ */!function(){try{var t=&quot;currentScript&quot;in document?document.currentScript:function(){for(var t=document.getElementsByTagName(&quot;script&quot;),e=t.length;e--;)if(t[e].getAttribute(&quot;cf-hash&quot;))return t[e]}();if(t&amp;&amp;t.previousSibling){var e,r,n,i,c=t.previousSibling,a=c.getAttribute(&quot;data-cfemail&quot;);if(a){for(e=&quot;&quot;,r=parseInt(a.substr(0,2),16),n=2;a.length-n;n+=2)i=parseInt(a.substr(n,2),16)^r,e+=String.fromCharCode(i);e=document.createTextNode(e),c.parentNode.replaceChild(e,c)}}}catch(u){}}();/* ]]&gt; */&lt;/script&gt;\nFormat settings, CABAC : Yes\nFormat settings, ReFrames : 5 frames\nCodec ID : avc1\nCodec ID/Info : Advanced Video Coding\nDuration : 2h 16mn\nBit rate : 1 094 Kbps\nWidth : 960 pixels\nHeight : 416 pixels\nDisplay aspect ratio : 2.35:1\nFrame rate mode : Variable\nFrame rate : 23.976 fps\nMinimum frame rate : 17.026 fps\nMaximum frame rate : 23.981 fps\nColor space : YUV\nChroma subsampling : 4:2:0\nBit depth : 8 bits\nScan type : Progressive\nBits/(Pixel*Frame) : 0.114\nStream size : 1.04 GiB (74%)\nip_ratio=1.40 / aq=1:1.00\nEncoded date : UTC 2014-04-08 09:29:44\nTagged date : UTC 2014-04-08 12:10:55\nColor primaries : BT.709\nTransfer characteristics : BT.709\nMatrix coefficients : BT.709\n\nAudio #1\nID : 2\nFormat : AAC\nFormat/Info : Advanced Audio Codec\nFormat profile : LC\nCodec ID : 40\nDuration : 2h 16mn\nBit rate mode : Variable\nBit rate : 160 Kbps\nMaximum bit rate : 298 Kbps\nChannel(s) : 2 channels\nChannel positions : Front: L R\nSampling rate : 48.0 KHz\nCompression mode : Lossy\nStream size : 156 MiB (11%)\nLanguage : English\nEncoded date : UTC 2014-04-08 09:29:44\nTagged date : UTC 2014-04-08 12:10:54\n","torrent":{"xt":"urn:btih:5c480a579f5ef3c965169fd45503da996f9ff283","amp;dn":"Star+Wars+Episode+I+The+Phantom+Menace+%281999%29+DVD+RIP","amp;tr":["udp%3A%2F%2Ftracker.openbittorrent.com%3A80","udp%3A%2F%2Fopen.demonii.com%3A1337","udp%3A%2F%2Ftracker.coppersurfer.tk%3A6969","udp%3A%2F%2Fexodus.desync.com%3A6969"],"infoHash":"5c480a579f5ef3c965169fd45503da996f9ff283","infoHashBuffer":{"type":"Buffer","data":[92,72,10,87,159,94,243,201,101,22,159,212,85,3,218,153,111,159,242,131]},"announce":[],"urlList":[]}}